<?xml version="1.0" standalone="no"?>
<!DOCTYPE svg PUBLIC "-//W3C//DTD SVG 1.1//EN" "http://www.w3.org/Graphics/SVG/1.1/DTD/svg11.dtd">

<svg width="135" height="50" viewBox="0 0 135 50" 
  xmlns="http://www.w3.org/2000/svg"
  xmlns:xlink="http://www.w3.org/1999/xlink">


<polyline points="0.0, 28.31836826037068 0.7988165680473372, 27.239130391729084 1.5976331360946745, 25.286577988641568 2.396449704142012, 27.87751434655567 3.195266272189349, 30.562389091110916 3.994082840236686, 34.78109469695122 4.792899408284024, 39.373843038332225 5.591715976331361, 34.742845187262255 6.390532544378698, 35.956655909428406 7.189349112426036, 36.77684943960269 7.988165680473372, 40.12844372427826 8.78698224852071, 46.24777142731818 9.585798816568047, 42.89359498734066 10.384615384615385, 41.63316119515363 11.183431952662723, 40.373214514769444 11.982248520710058, 37.26573244687265 12.781065088757396, 38.164361517189036 13.579881656804734, 35.0851456799545 14.378698224852071, 36.830426624076075 15.177514792899409, 41.31928400934682 15.976331360946745, 45.305083385510756 16.775147928994084, 38.69874774100591 17.57396449704142, 37.5880030074831 18.37278106508876, 37.76148934030166 19.171597633136095, 38.82668886531785 19.970414201183434, 35.88578156981853 20.76923076923077, 42.06231862801933 21.56804733727811, 38.194915149711456 22.366863905325445, 37.40097107869254 23.16568047337278, 38.6756933024709 23.964497041420117, 40.298130210898194 24.763313609467456, 38.748674042605906 25.562130177514792, 37.223833508513394 26.36094674556213, 43.64256374640645 27.159763313609467, 41.74389658581611 27.958579881656807, 43.10249459135496 28.757396449704142, 50.0 29.55621301775148, 49.87126393600797 30.355029585798817, 48.61203317526974 31.153846153846157, 45.98521546679641 31.95266272189349, 44.62490605997145 32.751479289940825, 45.192465780650835 33.55029585798817, 43.25529510594549 34.349112426035504, 43.22036846169288 35.14792899408284, 43.12887882704822 35.94674556213018, 38.96566642603327 36.74556213017752, 38.98500270553178 37.54437869822485, 38.71909711989858 38.34319526627219, 38.39442356612119 39.142011834319526, 39.41109601253815 39.94082840236687, 39.585851837392475 40.7396449704142, 39.023072742006335 41.53846153846154, 38.54363165723746 42.337278106508876, 38.80377719526537 43.13609467455622, 36.61270014578026 43.93491124260355, 40.60358392663429 44.73372781065089, 38.96132580496876 45.532544378698226, 38.67648214284456 46.33136094674556, 35.58277329707039 47.1301775147929, 37.8666037551448 47.928994082840234, 38.26997495424984 48.72781065088758, 36.51377069207424 49.52662721893491, 38.118188361450066 50.32544378698225, 38.17138591202881 51.124260355029584, 36.42468373822469 51.92307692307693, 38.25925576992154 52.72189349112426, 38.739525961177726 53.5207100591716, 38.479070388048754 54.319526627218934, 40.442152656877425 55.11834319526627, 40.32832855397539 55.91715976331361, 41.300496276778006 56.71597633136094, 39.84677900796924 57.514792899408285, 40.011559738329424 58.31360946745562, 38.63366653348215 59.11242603550296, 38.07427718024387 59.91124260355029, 36.08968358644207 60.710059171597635, 35.46405550759199 61.50887573964497, 36.86184775552041 62.307692307692314, 34.88195453349038 63.10650887573964, 30.922474070515367 63.90532544378698, 32.38989953807355 64.70414201183432, 29.57098264130608 65.50295857988165, 29.587131825122114 66.30177514792899, 31.830796179338932 67.10059171597634, 23.08756656215218 67.89940828402366, 24.97619947548724 68.69822485207101, 27.38956616435014 69.49704142011834, 27.23541322270539 70.29585798816568, 28.137322383904294 71.09467455621302, 23.951871083097632 71.89349112426036, 28.65240367292475 72.6923076923077, 29.879363422981847 73.49112426035504, 30.23962909515451 74.28994082840237, 33.20551423058624 75.0887573964497, 34.39521787950001 75.88757396449704, 33.250491355837 76.68639053254438, 34.92713674006892 77.48520710059172, 33.543098110227696 78.28402366863905, 35.760860193612906 79.0828402366864, 31.410373939676937 79.88165680473374, 27.977180014222785 80.68047337278107, 27.985031391801503 81.4792899408284, 25.70392235837593 82.27810650887574, 26.692997816520297 83.07692307692308, 25.037872129628646 83.87573964497041, 26.483468466363508 84.67455621301775, 25.427987348991856 85.4733727810651, 29.671215163182506 86.27218934911244, 33.05946914163647 87.07100591715975, 33.1185853994939 87.8698224852071, 30.902074382318865 88.66863905325444, 30.340477936280507 89.46745562130178, 27.349874723552077 90.26627218934911, 29.443383540440543 91.06508875739645, 29.365622086743098 91.8639053254438, 28.592923718485107 92.66272189349112, 30.10419034494461 93.46153846153845, 31.633227785488945 94.2603550295858, 35.74716157231953 95.05917159763314, 35.093775772094496 95.85798816568047, 33.899282085906385 96.65680473372781, 35.1846053647816 97.45562130177515, 37.093996613599835 98.2544378698225, 31.360561419426947 99.05325443786982, 30.477188102371315 99.85207100591715, 30.446922517752462 100.6508875739645, 28.80317893801666 101.44970414201183, 33.55338182739971 102.24852071005917, 36.82758305526633 103.04733727810651, 32.79877080988701 103.84615384615385, 34.74281146450557 104.64497041420118, 30.597423392944883 105.44378698224853, 31.81795321294724 106.24260355029585, 30.888596202530767 107.0414201183432, 29.994553526323674 107.84023668639053, 25.966100433065975 108.63905325443787, 29.42216486527106 109.43786982248521, 26.895742673992277 110.23668639053254, 25.214507777416824 111.03550295857988, 28.849526984697683 111.83431952662723, 29.03110552264173 112.63313609467457, 30.014739126721786 113.43195266272188, 30.364713900623347 114.23076923076923, 30.127720935082774 115.02958579881657, 32.65996702201085 115.82840236686391, 31.11565838328769 116.62721893491124, 29.425216008332818 117.42603550295858, 30.53554823749536 118.22485207100593, 30.573139468128442 119.02366863905324, 32.07646889347119 119.82248520710058, 31.32802240158253 120.62130177514793, 22.468393712252503 121.42011834319527, 29.246986622872267 122.2189349112426, 34.635174927510974 123.01775147928994, 34.959085441893045 123.81656804733728, 30.484022147613338 124.61538461538463, 29.016132850592335 125.41420118343194, 27.519520112968117 126.21301775147928, 28.901926494235337 127.01183431952663, 14.948024638855664 127.81065088757396, 11.016268291956157 128.60946745562129, 11.911736667482998 129.40828402366864, 6.894441534756292 130.20710059171597, 7.439871768427311 131.0059171597633, 3.5684550483663457 131.80473372781066, 0.0 132.60355029585799, 3.171801217266156 133.40236686390534, 5.547392368899892 134.20118343195267, 11.442922906245109" fill="none" stroke="#32ca5b" stroke-width="1.25"/>

</svg>