<svg xmlns="http://www.w3.org/2000/svg" width="4000" height="4000" enable-background="new 0 0 4000 4000" viewBox="0 0 4000 4000" id="diagram"><path d="M2814.811,1283.12c-0.714,0.778-1.427,1.492-2.141,2.271l2.206-2.271H2814.811z"></path><path fill="#162F35" d="M3442.732,3357.659h-173.539V1369.065c0-32.697-26.469-59.166-59.166-59.166H2950.4
		c145.448-158.618,281.101-333.843,406.243-525.158l15.181,795.879c1.557,78.564,111.843,73.373,118.331-2.271
		c-3.244-170.813-14.208-741.968-16.413-856.795c-0.844-45.282,17.451-160.694-31.01-190.212
		c-45.737-27.831-127.219,31.918-166.208,50.992c-100.685,49.369-201.371,98.674-302.055,148.042
		c-161.537,79.148-323.075,158.359-484.612,237.506c-68.378,33.669-16.478,139.87,52.094,106.199l712.451-349.153
		c-351.36,536.057-828.122,998.741-1417.635,1263.559c-326.448,146.68-679.884,228.617-1037.407,242.435
		c-79.795,3.114-159.786,2.854-239.581-0.518c-76.292-3.18-81.288,115.022-4.995,118.199c193.52,8.306,387.884-1.685,579.393-31.009
		v1040.065H557.248c-76.292,0-76.292,118.266,0,118.266h2885.484C3519.089,3475.925,3519.089,3357.659,3442.732,3357.659z
		 M1537.501,3357.659h-285.058V2307.278h285.058V3357.659z M1940.825,3357.659h-285.058V2295.018
		c0-46.126,1.946-109.249-29.842-98.221c106.589-37.043,211.75-79.341,314.9-128.646V3357.659z M2344.214,3357.659h-285.058
		V2033.249h285.058V3357.659z M2747.538,3357.659H2462.48V1974.083c0-32.695-26.469-59.165-59.166-59.165H2222.12
		c185.606-113.79,361.026-247.43,525.418-400.405V3357.659z M3150.862,3357.659h-285.058V1428.23h285.058V3357.659z"></path><rect width="285.058" height="1929.429" x="2865.804" y="1428.23" fill="#EDBE49"></rect><rect width="285.058" height="1324.41" x="2059.156" y="2033.249" fill="#E96464"></rect><rect width="285.058" height="1050.381" x="1252.443" y="2307.278" fill="#52B8CE"></rect><path d="M2814.876,1283.12l-2.206,2.271c0.714-0.779,1.427-1.492,2.141-2.271H2814.876z"></path></svg>