<?xml version="1.0" standalone="no"?>
<!DOCTYPE svg PUBLIC "-//W3C//DTD SVG 1.1//EN" "http://www.w3.org/Graphics/SVG/1.1/DTD/svg11.dtd">

<svg width="135" height="50" viewBox="0 0 135 50" 
  xmlns="http://www.w3.org/2000/svg"
  xmlns:xlink="http://www.w3.org/1999/xlink">


<polyline points="0.0, 32.10336834046461 0.7988165680473372, 31.418319752928277 1.5976331360946745, 27.11034700021721 2.396449704142012, 28.67126620239942 3.195266272189349, 31.737685674441312 3.994082840236686, 34.49429345470645 4.792899408284024, 38.07362064504242 5.591715976331361, 34.96034771509146 6.390532544378698, 38.52941706938899 7.189349112426036, 44.10043911034311 7.988165680473372, 47.72618001949985 8.78698224852071, 45.7843931318191 9.585798816568047, 43.92812516577798 10.384615384615385, 46.14717758888878 11.183431952662723, 43.29390140065551 11.982248520710058, 42.936279852314506 12.781065088757396, 42.53389639395968 13.579881656804734, 39.05418899500254 14.378698224852071, 39.396637591012926 15.177514792899409, 43.02940816849507 15.976331360946745, 47.93098239071566 16.775147928994084, 45.385781323863625 17.57396449704142, 45.377879686476064 18.37278106508876, 44.8637267948311 19.171597633136095, 48.36344189449838 19.970414201183434, 46.30013154173029 20.76923076923077, 50.0 21.56804733727811, 45.507721282855805 22.366863905325445, 41.17191224231252 23.16568047337278, 42.506162718379905 23.964497041420117, 43.96004999876801 24.763313609467456, 41.1437918262263 25.562130177514792, 39.46162529800377 26.36094674556213, 41.711131496718195 27.159763313609467, 33.68253065194475 27.958579881656807, 37.48530313613881 28.757396449704142, 41.55679425452084 29.55621301775148, 43.098317796918536 30.355029585798817, 41.22236664180014 31.153846153846157, 39.3553588674873 31.95266272189349, 36.524778419177146 32.751479289940825, 39.181124668032815 33.55029585798817, 37.879740791747565 34.349112426035504, 34.92456470384468 35.14792899408284, 33.1579008673635 35.94674556213018, 26.68833848717553 36.74556213017752, 27.869343083776897 37.54437869822485, 29.17476690781105 38.34319526627219, 28.986868373252396 39.142011834319526, 27.849622504787146 39.94082840236687, 26.994625790858805 40.7396449704142, 29.706297937634314 41.53846153846154, 31.59208742901467 42.337278106508876, 32.6020853255185 43.13609467455622, 31.231006787783095 43.93491124260355, 35.17995975757388 44.73372781065089, 32.52501989659308 45.532544378698226, 28.451316813020444 46.33136094674556, 26.966846215863843 47.1301775147929, 26.263476198229913 47.928994082840234, 25.81123418421265 48.72781065088758, 25.373113587081438 49.52662721893491, 28.049438915984194 50.32544378698225, 26.032630495921914 51.124260355029584, 25.23387248968599 51.92307692307693, 26.621945814140247 52.72189349112426, 24.98751553563466 53.5207100591716, 24.412435321273403 54.319526627218934, 28.99555736489086 55.11834319526627, 29.92190824410162 55.91715976331361, 26.783619221782313 56.71597633136094, 26.123956732332864 57.514792899408285, 27.97364634531343 58.31360946745562, 28.337010304184357 59.11242603550296, 28.01030374822226 59.91124260355029, 28.54040587129173 60.710059171597635, 30.031471341680334 61.50887573964497, 31.96697398978754 62.307692307692314, 31.84886787499197 63.10650887573964, 30.049080323291243 63.90532544378698, 31.396439803726068 64.70414201183432, 28.948404510724153 65.50295857988165, 27.641541667005825 66.30177514792899, 27.299887994668126 67.10059171597634, 27.273175150531443 67.89940828402366, 27.430010812964362 68.69822485207101, 28.118902936483476 69.49704142011834, 25.71791996764381 70.29585798816568, 26.523442769044063 71.09467455621302, 26.586548469963812 71.89349112426036, 30.049476369111645 72.6923076923077, 26.15846805546489 73.49112426035504, 23.78616527118337 74.28994082840237, 29.893739781737654 75.0887573964497, 30.96660562196196 75.88757396449704, 29.348990724650402 76.68639053254438, 28.865135162189148 77.48520710059172, 30.371359122333498 78.28402366863905, 31.72454193637205 79.0828402366864, 26.2788388230115 79.88165680473374, 21.05014955883361 80.68047337278107, 24.305810788858633 81.4792899408284, 23.022649864573484 82.27810650887574, 25.80071494242836 83.07692307692308, 25.92829966767712 83.87573964497041, 27.476471252181206 84.67455621301775, 27.354638468413285 85.4733727810651, 24.389167031855145 86.27218934911244, 28.06671354690804 87.07100591715975, 28.37849641478254 87.8698224852071, 22.704399387815833 88.66863905325444, 22.67356725552173 89.46745562130178, 22.173098909715222 90.26627218934911, 24.29464069375985 91.06508875739645, 23.54886600197637 91.8639053254438, 0.0 92.66272189349112, 4.226086532226804 93.46153846153845, 7.934934242090928 94.2603550295858, 8.387240148756328 95.05917159763314, 9.99992116521704 95.85798816568047, 9.60574653997671 96.65680473372781, 7.189522532954505 97.45562130177515, 10.253771661496502 98.2544378698225, 9.984378975622265 99.05325443786982, 10.352893264596418 99.85207100591715, 10.60410637850366 100.6508875739645, 10.264480076427795 101.44970414201183, 15.534968216547249 102.24852071005917, 17.25849080736473 103.04733727810651, 18.064109716606893 103.84615384615385, 25.306665195801116 104.64497041420118, 20.175170416736538 105.44378698224853, 18.20001032053996 106.24260355029585, 20.20152423335385 107.0414201183432, 20.293763312534242 107.84023668639053, 22.346253080052954 108.63905325443787, 24.782838574129034 109.43786982248521, 19.35462066307855 110.23668639053254, 15.500704080648228 111.03550295857988, 16.994020834218343 111.83431952662723, 16.85767225314049 112.63313609467457, 12.892922868857623 113.43195266272188, 17.2434832457859 114.23076923076923, 15.379121681426788 115.02958579881657, 20.11495006502394 115.82840236686391, 20.280873180590042 116.62721893491124, 19.311212828460526 117.42603550295858, 20.318699290341165 118.22485207100593, 20.721719104453086 119.02366863905324, 23.97565374055575 119.82248520710058, 24.15059185099098 120.62130177514793, 21.648184102177844 121.42011834319527, 24.527216106996715 122.2189349112426, 26.724441244854237 123.01775147928994, 29.57608921944523 123.81656804733728, 25.746701813199298 124.61538461538463, 25.12223403679066 125.41420118343194, 18.60661080384484 126.21301775147928, 10.902643497550821 127.01183431952663, 6.196385762009176 127.81065088757396, 7.796262921864414 128.60946745562129, 10.652566468773566 129.40828402366864, 13.183270173429568 130.20710059171597, 11.588883271743015 131.0059171597633, 11.449627016431288 131.80473372781066, 10.57123419288271 132.60355029585799, 9.613388826681108 133.40236686390534, 13.75058359184459 134.20118343195267, 19.588636479213864" fill="none" stroke="#32ca5b" stroke-width="1.25"/>

</svg>