<?xml version="1.0" standalone="no"?>
<!DOCTYPE svg PUBLIC "-//W3C//DTD SVG 1.1//EN" "http://www.w3.org/Graphics/SVG/1.1/DTD/svg11.dtd">

<svg width="135" height="50" viewBox="0 0 135 50" 
  xmlns="http://www.w3.org/2000/svg"
  xmlns:xlink="http://www.w3.org/1999/xlink">


<polyline points="0.0, 3.1294614630183757 0.7941176470588235, 2.215445998957068 1.588235294117647, 19.01435261227163 2.3823529411764706, 20.615492350968204 3.176470588235294, 24.600434079076145 3.9705882352941178, 15.4058556056119 4.764705882352941, 11.477859969903344 5.5588235294117645, 9.769646662017802 6.352941176470588, 6.900776036257077 7.147058823529411, 5.451301127306431 7.9411764705882355, 10.950557885549864 8.73529411764706, 10.789939777460319 9.529411764705882, 21.284188413912457 10.323529411764707, 10.174972936911615 11.117647058823529, 11.287615506720151 11.911764705882353, 19.505398844474225 12.705882352941176, 30.38978755459627 13.5, 11.089803014305955 14.294117647058822, 10.741891232896899 15.088235294117649, 8.395324218552139 15.882352941176471, 7.754502321086032 16.676470588235293, 6.489898936586856 17.47058823529412, 8.636569680729684 18.26470588235294, 10.85035582026184 19.058823529411764, 8.002141188311036 19.85294117647059, 8.281552742450007 20.647058823529413, 9.97675560935308 21.441176470588236, 8.976028450481817 22.235294117647058, 10.090088985809103 23.029411764705884, 20.020025060038094 23.823529411764707, 21.69302225900611 24.61764705882353, 17.392281616612358 25.41176470588235, 14.865495517520348 26.205882352941178, 13.635100090167395 27.0, 11.604337275837613 27.794117647058822, 19.972324503019728 28.588235294117645, 13.10402802057277 29.38235294117647, 10.888451787338498 30.176470588235297, 10.535569055818469 30.970588235294116, 12.502485211139906 31.764705882352942, 10.3859654746643 32.55882352941177, 12.428546992474974 33.35294117647059, 12.181243474882548 34.14705882352941, 9.275934569597286 34.94117647058824, 7.333203368394855 35.73529411764706, 2.114514505145854 36.52941176470588, 2.714444188779947 37.32352941176471, 4.5306655778757925 38.11764705882353, 4.123542219726603 38.91176470588235, 2.6002628117030637 39.70588235294118, 3.5208248070472714 40.5, 3.2003282665403288 41.294117647058826, 3.766469221432157 42.088235294117645, 14.443269484726606 42.88235294117647, 11.484659488938366 43.6764705882353, 12.302471981163462 44.470588235294116, 14.176913885520804 45.264705882352935, 11.8340362297118 46.05882352941177, 12.056735914387346 46.85294117647059, 12.702662280757293 47.64705882352941, 17.303932249307692 48.44117647058824, 30.915841307904664 49.23529411764706, 15.455944826547393 50.029411764705884, 14.528309336220238 50.8235294117647, 16.212274967114293 51.61764705882353, 15.16422913894451 52.411764705882355, 15.100718176802985 53.205882352941174, 18.33022501651473 54.0, 22.927803146224633 54.794117647058826, 9.948562635478059 55.588235294117645, 10.695581390957667 56.38235294117647, 7.862007577109936 57.17647058823529, 7.330419691102784 57.970588235294116, 3.789032506683325 58.76470588235294, 4.091130111577409 59.55882352941176, 2.3819564116995244 60.352941176470594, 2.7149129665646 61.14705882352941, 3.49090674199159 61.94117647058823, 0.0 62.73529411764706, 2.004862492545193 63.529411764705884, 1.6657247490776184 64.3235294117647, 3.0445197853650314 65.11764705882354, 4.4408567639109116 65.91176470588235, 2.148127818207787 66.70588235294117, 23.48714375558945 67.5, 4.070044340121795 68.29411764705883, 4.6000516356093435 69.08823529411764, 5.1616730080202124 69.88235294117648, 23.650139309406722 70.6764705882353, 25.93848947527343 71.47058823529412, 28.513885441803527 72.26470588235294, 27.931050230852716 73.05882352941175, 29.466627784491074 73.8529411764706, 22.04471416052344 74.64705882352942, 39.911757228644646 75.44117647058823, 23.278686035078834 76.23529411764706, 22.352452441899345 77.02941176470588, 22.861800416988242 77.8235294117647, 5.7621403587394875 78.61764705882354, 5.807028450956259 79.41176470588236, 4.954058635147603 80.20588235294117, 12.611457825845863 81.0, 12.335024171158276 81.79411764705881, 14.137419347548215 82.58823529411765, 10.376598475889939 83.38235294117648, 12.55619027605702 84.17647058823529, 13.916242927401582 84.97058823529412, 21.599628554984264 85.76470588235294, 25.147641718872098 86.55882352941177, 23.226830998565703 87.3529411764706, 18.407415648063346 88.14705882352942, 19.527810009656843 88.94117647058823, 38.65633765348227 89.73529411764706, 21.543306310058803 90.52941176470587, 24.195042664963996 91.32352941176471, 23.331441317869324 92.11764705882354, 33.36723226115106 92.91176470588235, 8.10437655135517 93.70588235294117, 9.837789312013436 94.5, 9.638506420563287 95.29411764705883, 12.22186380146427 96.08823529411765, 12.096820600568895 96.88235294117648, 7.64786758272928 97.67647058823529, 13.554927591313525 98.47058823529412, 14.244086896831831 99.26470588235294, 13.98489807934967 100.05882352941177, 10.161385007360753 100.8529411764706, 6.926629740163602 101.6470588235294, 11.41126815192682 102.44117647058823, 9.972366718778442 103.23529411764706, 24.859787052447608 104.02941176470588, 10.237017465305113 104.82352941176471, 13.253853522063721 105.61764705882352, 12.692738229209002 106.41176470588235, 11.268158957434089 107.20588235294117, 9.875957214869793 108.0, 6.838231553318462 108.79411764705883, 8.259264765538594 109.58823529411765, 13.28887796396813 110.38235294117646, 11.181905860920924 111.17647058823529, 8.91359256628195 111.97058823529413, 7.990993590801737 112.76470588235294, 8.291929758925056 113.55882352941177, 8.309424913102609 114.35294117647058, 8.690418126063694 115.1470588235294, 11.332610258309828 115.94117647058823, 11.98593558150424 116.73529411764706, 11.355462048317762 117.52941176470588, 11.669999590343773 118.32352941176471, 11.604150159424016 119.11764705882352, 28.610396841797847 119.91176470588235, 25.871962822788973 120.70588235294119, 21.362026649629207 121.5, 5.783299813335922 122.29411764705883, 5.463557763752332 123.08823529411764, 14.447520220399948 123.88235294117646, 13.51699210784076 124.6764705882353, 6.796637476310694 125.47058823529412, 8.460618150550248 126.26470588235294, 18.52103539515658 127.05882352941177, 47.55248788536035 127.85294117647058, 50.0 128.6470588235294, 43.196858723522816 129.44117647058823, 47.01519801659357 130.23529411764707, 34.183071578500645 131.02941176470588, 43.437245839827554 131.8235294117647, 41.31537109009556 132.61764705882354, 43.81207092816008 133.41176470588235, 45.68753062836947 134.2058823529412, 44.53725850970108" fill="none" stroke="#ff3a33" stroke-width="1.25"/>

</svg>